# xmcd CD database file
#
# Track frame offsets:
#	150
#	9904
#	23005
#	35098
#	48341
#	61107
#	74209
#	87721
#
# Disc length: 1344 seconds
#
# Revision: 1
# Processed by: cddbd v1.5.2PL0 Copyright (c) Steve Scherf et al.
# Submitted via: CDex 1.70beta2
#
DISCID=68053e08
DTITLE=Andrews Sisters - DAISO Female Singers Collection 3
DYEAR=2005
DGENRE=Jazz
TTITLE0=Coca Roca
TTITLE1=I Got A Guy In Kalamazoo
TTITLE2=I Want My Mama(Mama Yo Quero)
TTITLE3=Chattanooga Choo Choo
TTITLE4=Ooooo-Oh Boom
TTITLE5=That's The Moon My Son
TTITLE6=When A Prince Of Fella Meets Cinderella
TTITLE7=Why Talk About Love
EXTD=YEAR: 2005
EXTT0=
EXTT1=
EXTT2=
EXTT3=
EXTT4=
EXTT5=
EXTT6=
EXTT7=
PLAYORDER=
